# xmcd
#
# Track frame offsets: 
#        150
#        12099
#        24570
#        38514
#        51521
#        62637
#        76830
#        89073
#        100199
#        112922
#        126257
#        139088
#        150968
#        164344
#        177935
#        188974
#        200462
#        213217
#        225228
#        235967
#        249004
#        262591
#        276017
#        289286
#        304369
#
# Disc length: 4249 seconds
#
# Revision: 0
# Processed by: cddbd v1.5.2PL0 Copyright (c) Steve Scherf et al.
# Submitted via: ExactAudioCopy v1.0b3
#
DISCID=47109719
DTITLE=Various Artist - Western Swing: Toe-Tapping Boot-Stomping Country (Dis
DTITLE=c 2)
DYEAR=2012
DGENRE=Country
TTITLE0=Bob Wills and His Texas Playboys - New San Antonio Rose
TTITLE1=Bob Wills and His Texas Playboys - Steel Guitar Rag
TTITLE2=Bob Wills and His Texas Playboys - Maiden's Prayer
TTITLE3=Bob Wills and His Texas Playboys - Corrine, Corrina
TTITLE4=Bob Wills and His Texas Playboys - Oozlin' Daddy Blues
TTITLE5=Milton Brown and His Musical Brownies - Sweet Jennie Lee
TTITLE6=Milton Brown and His Musical Brownies - Right Or Wrong
TTITLE7=The Modern Mountaineers - Everybody's Truckin'
TTITLE8=Louise Massey and Her Westerners - Billy Boy
TTITLE9=Spade Cooley and His Orchestra - You Can't Break My Heart
TTITLE10=Spade Cooley and His Orchestra - Oklahoma Stomp
TTITLE11=Spade Cooley and His Orchestra - It's Dark Outside
TTITLE12=Pee Wee King and His Golden West Cowboys - Tennessee Waltz
TTITLE13=Pee Wee King and His Golden West Cowboys - Slow Poke
TTITLE14=Pee Wee King and His Golden West Cowboys - 49 Women
TTITLE15=Hank Penny - Peach Tree Shuffle
TTITLE16=Hank Penny - Chill Tonic
TTITLE17=Adolf Hofner and His San Antonians - Alamo Rag
TTITLE18=Adolf Hofner and His San Antonians - Brown-Eyed Sweet
TTITLE19=Charlie Linville and The Fiddlin' Linvilles - Texahoma Boogie
TTITLE20=Leon MCauliffe - Blue Guitar Stomp
TTITLE21=Commander Cody and His Lost Planet Airmen - Hot Rod Lincoln (Li
TTITLE21=ve)
TTITLE22=Commander Cody and His Lost Planet Airmen - I Took Three Bennie
TTITLE22=s And My Semi Truck Won't Start (Live)
TTITLE23=Commander Cody and His Lost Planet Airmen - Seeds And Stems Aga
TTITLE23=in (Live)
TTITLE24=Commander Cody and His Lost Planet Airmen - Take Me Back To Tul
TTITLE24=sa (Live)
EXTD=
EXTT0=
EXTT1=
EXTT2=
EXTT3=
EXTT4=
EXTT5=
EXTT6=
EXTT7=
EXTT8=
EXTT9=
EXTT10=
EXTT11=
EXTT12=
EXTT13=
EXTT14=
EXTT15=
EXTT16=
EXTT17=
EXTT18=
EXTT19=
EXTT20=
EXTT21=
EXTT22=
EXTT23=
EXTT24=
PLAYORDER=
